<svg xmlns="http://www.w3.org/2000/svg" viewBox="0 0 79 80">
  <path fill="#00B2FF" fill-rule="nonzero" d="M75.767 36.383s-27.455.013-28.416.019V3.175C47.321 1.424 45.79 0 44.025 0c-6.737.026-11.719.273-19.273 3.347-5.766 2.344-9.523 5.072-11.969 7.725C4.753 18.47.103 28.874.023 39.696c-.078 10.63 4 20.637 11.486 28.178 7.486 7.543 17.46 11.696 28.086 11.696C61.323 79.57 79 61.893 79 40.165v-.548a3.236 3.236 0 0 0-3.233-3.234M27.147 9.238c5.255-2.137 8.89-2.694 13.844-2.835v29.963c-5.188-.155-10.261-1.18-15.001-3.324a32.378 32.378 0 0 1-5.058-2.842c-3.507-2.434-6.264-5.566-6.238-8.94.044-6.084 7.65-10.069 12.453-12.022M39.595 73.21c-8.917 0-17.29-3.486-23.572-9.816-6.283-6.33-9.705-14.728-9.64-23.65.036-4.737 1.059-9.29 2.977-13.451.026.063.483 1.078.676 1.45 1.576 2.955 4.081 5.428 6.781 7.364 12.276 8.797 27.19 7.668 41.558 7.668H72.54C71.22 59.796 56.95 73.21 39.595 73.21"></path>
</svg>